<?xml version="1.0" standalone="no"?>
<!DOCTYPE svg PUBLIC "-//W3C//DTD SVG 20010904//EN"
 "http://www.w3.org/TR/2001/REC-SVG-20010904/DTD/svg10.dtd">
<svg version="1.0" xmlns="http://www.w3.org/2000/svg"
 width="324.000000pt" height="100.000000pt" viewBox="0 0 324.000000 100.000000"
 preserveAspectRatio="xMidYMid meet">

<g transform="translate(0.000000,100.000000) scale(0.100000,-0.100000)"
fill="#000000" stroke="none">
<path d="M560 955 l0 -35 55 0 c30 0 55 -4 55 -10 0 -5 -24 -10 -54 -10 -58 0
-67 -8 -58 -58 4 -21 10 -23 51 -22 70 3 73 -3 6 -9 -49 -5 -60 -9 -59 -23 1
-10 2 -27 3 -38 1 -17 8 -20 56 -20 30 0 55 -4 55 -10 0 -5 -25 -10 -55 -10
-54 0 -55 0 -55 -30 0 -16 0 -33 0 -37 0 -5 26 -11 57 -14 l58 -6 -56 -1 c-50
-2 -57 -5 -61 -24 -9 -50 0 -58 58 -58 30 0 54 -4 54 -10 0 -5 -25 -10 -55
-10 l-55 0 0 -35 0 -35 1065 0 1065 0 0 35 0 35 -54 0 c-30 0 -58 5 -61 10 -4
6 17 10 54 10 l61 0 0 34 c0 39 -10 45 -78 48 -45 1 -45 2 13 7 l60 6 3 38 3
37 -60 0 c-34 0 -61 4 -61 10 0 6 27 10 61 10 l60 0 -3 38 -3 37 -60 6 -60 5
60 5 60 4 3 38 3 37 -61 0 c-38 0 -59 4 -55 10 3 6 31 10 61 10 l54 0 0 35 0
35 -1065 0 -1065 0 0 -35z m489 -61 c24 -19 31 -34 31 -60 l0 -34 -54 0 c-46
0 -56 3 -61 20 -8 24 -66 28 -85 5 -21 -26 -3 -43 69 -65 85 -25 116 -56 107
-110 -8 -48 -34 -81 -87 -108 -38 -20 -56 -23 -127 -20 -77 3 -86 5 -108 31
-15 18 -24 41 -24 63 l0 34 54 0 c45 0 54 -3 59 -20 7 -26 45 -40 79 -28 56
20 43 61 -26 78 -97 25 -126 49 -126 105 0 82 77 134 197 135 62 0 75 -3 102
-26z m417 4 c-3 -13 -6 -31 -6 -40 0 -16 -11 -18 -94 -18 -52 0 -97 -3 -99 -7
-3 -5 -8 -23 -12 -40 l-7 -33 87 0 c86 0 87 0 81 -22 -3 -13 -6 -31 -6 -40 0
-16 -11 -18 -89 -18 -84 0 -89 -1 -95 -22 -15 -57 -13 -58 84 -58 97 0 100 -2
80 -54 l-10 -26 -145 0 c-80 0 -145 4 -145 9 0 5 18 92 40 195 22 102 40 188
40 191 0 3 68 5 151 5 l151 0 -6 -22z m219 0 c3 -13 19 -77 34 -143 21 -88 30
-113 35 -95 3 14 15 68 26 120 11 52 22 105 25 118 5 19 12 22 55 22 28 0 50
-2 50 -4 0 -20 -83 -383 -89 -389 -4 -4 -39 -7 -77 -5 l-69 3 -34 145 -34 144
-31 -144 -31 -145 -47 -3 c-40 -3 -48 0 -48 14 0 16 66 342 75 372 3 8 28 12
79 12 70 0 76 -2 81 -22z m582 -158 c43 -239 45 -220 -27 -220 l-60 0 -6 40
-7 40 -76 0 -76 0 -23 -40 c-22 -38 -25 -40 -72 -40 -28 0 -50 4 -50 9 0 6 50
92 111 193 61 101 113 187 116 191 3 4 35 7 71 5 l67 -3 32 -175z m263 163 c0
-10 -17 -99 -38 -198 l-39 -180 -48 -3 c-26 -2 -51 0 -55 5 -6 7 59 338 75
381 3 7 24 12 55 12 41 0 50 -3 50 -17z"/>
<path d="M2104 760 l-40 -75 44 -3 c24 -2 46 -2 47 0 2 2 0 37 -3 78 l-7 75
-41 -75z"/>
<path d="M43 323 c-23 -9 -15 -42 13 -49 16 -4 24 -12 22 -23 -4 -20 -38 -27
-49 -10 -4 7 -11 10 -14 7 -12 -12 6 -28 30 -28 50 0 69 55 22 62 -33 5 -28
33 6 33 15 -1 27 3 27 7 0 9 -37 10 -57 1z"/>
<path d="M616 322 c-3 -5 -8 -29 -10 -53 l-6 -44 13 45 c14 48 17 46 36 -12
20 -60 34 -48 45 37 l5 40 -11 -42 c-6 -24 -14 -43 -18 -43 -4 0 -13 18 -20
40 -13 39 -23 49 -34 32z"/>
<path d="M1197 301 c-3 -16 -9 -42 -12 -57 -4 -21 -3 -25 3 -14 11 17 26 100
19 100 -2 0 -7 -13 -10 -29z"/>
<path d="M1332 281 c-7 -30 -10 -56 -8 -59 7 -6 28 77 24 96 -2 9 -9 -7 -16
-37z"/>
<path d="M1506 275 c-20 -30 -32 -55 -27 -55 5 0 11 7 15 15 8 22 66 20 66 -2
0 -9 3 -14 6 -10 8 8 -6 107 -16 107 -4 0 -24 -25 -44 -55z m41 -12 c-3 -3
-13 -3 -21 -1 -15 3 -15 6 1 28 l18 25 3 -23 c2 -13 1 -26 -1 -29z"/>
<path d="M1991 308 c-14 -39 -22 -93 -12 -83 9 10 32 105 25 105 -3 0 -8 -10
-13 -22z"/>
<path d="M2586 293 c-4 -21 -10 -47 -13 -58 -3 -14 -2 -17 5 -10 11 10 28 105
19 105 -3 0 -8 -17 -11 -37z"/>
<path d="M2778 313 c-2 -11 -12 -18 -28 -18 -16 0 -29 -9 -36 -24 -17 -33 -7
-52 27 -49 25 2 29 7 39 52 6 27 8 51 6 53 -2 3 -6 -4 -8 -14z m-13 -47 c0
-20 -30 -45 -41 -34 -3 4 -3 19 0 33 8 31 41 31 41 1z"/>
<path d="M3216 313 c-10 -35 -18 -93 -13 -93 7 0 29 102 23 107 -2 3 -7 -4
-10 -14z"/>
<path d="M2979 307 c-6 -23 -7 -87 -1 -87 4 0 8 14 8 31 1 17 7 35 13 39 10 5
9 9 -3 13 -9 4 -16 5 -17 4z"/>
<path d="M125 276 c-18 -27 -14 -56 7 -56 11 0 11 2 0 8 -18 12 2 62 24 62 10
0 14 -5 10 -15 -3 -8 -1 -15 5 -15 6 0 9 8 7 17 -5 28 -35 27 -53 -1z"/>
<path d="M205 262 c-3 -19 -4 -37 -1 -40 3 -3 6 4 6 16 0 12 9 29 20 39 19 18
19 19 0 19 -13 0 -20 -10 -25 -34z"/>
<path d="M265 271 c3 -18 5 -37 5 -42 0 -19 16 -7 38 26 12 19 22 38 22 42 0
5 -10 -7 -22 -26 l-22 -34 -13 34 -13 34 5 -34z"/>
<path d="M398 289 c-19 -10 -26 -69 -9 -69 5 0 11 -7 13 -15 2 -10 6 -8 14 9
9 20 9 23 -8 18 -13 -3 -18 1 -18 16 0 24 25 46 41 36 8 -4 9 -3 5 4 -9 14
-16 15 -38 1z"/>
<path d="M465 276 c-20 -30 -10 -56 21 -56 27 0 51 38 41 64 -9 24 -44 19 -62
-8z m51 -1 c7 -18 -12 -45 -32 -45 -14 0 -20 41 -7 53 11 12 33 7 39 -8z"/>
<path d="M736 291 c-4 -5 3 -7 14 -4 11 3 20 0 20 -6 0 -6 -8 -11 -17 -11 -14
0 -15 -2 -4 -9 16 -11 6 -31 -16 -31 -10 0 -13 6 -9 16 3 8 2 12 -4 9 -22 -14
-10 -35 19 -33 24 2 30 8 35 31 3 16 3 33 0 38 -7 12 -31 12 -38 0z"/>
<path d="M842 286 c7 -8 15 -12 17 -11 5 6 -10 25 -20 25 -5 0 -4 -6 3 -14z"/>
<path d="M926 281 c-22 -24 -17 -55 10 -59 29 -4 61 34 48 56 -16 24 -38 26
-58 3z m49 -1 c8 -14 -13 -50 -30 -50 -21 0 -27 17 -15 40 11 21 35 27 45 10z"/>
<path d="M1057 289 c7 -7 10 -26 7 -43 l-4 -31 10 30 c11 34 7 55 -12 55 -9 0
-9 -3 -1 -11z"/>
<path d="M1116 291 c-4 -5 3 -7 14 -4 11 3 20 0 20 -6 0 -6 -6 -11 -14 -11
-19 0 -48 -29 -41 -41 4 -5 14 -9 23 -9 14 0 14 2 3 9 -16 10 -6 31 14 31 8 0
11 -8 8 -22 -4 -19 -3 -20 6 -8 6 8 11 27 11 43 0 20 -5 27 -19 27 -11 0 -22
-4 -25 -9z"/>
<path d="M1285 284 c-19 -20 -16 -58 5 -60 9 0 10 1 3 3 -21 7 -15 41 9 57 12
9 17 16 11 16 -6 0 -19 -7 -28 -16z"/>
<path d="M1376 281 c-10 -11 -16 -28 -14 -38 4 -21 35 -30 51 -14 7 7 4 8 -10
5 -27 -7 -37 10 -23 36 11 21 37 22 33 1 -2 -6 2 -11 8 -11 16 0 6 34 -12 38
-8 1 -23 -6 -33 -17z"/>
<path d="M1648 287 c18 -22 6 -57 -20 -57 -18 0 -20 4 -14 33 4 21 3 27 -3 17
-5 -8 -12 -33 -15 -55 -3 -22 -3 -32 0 -22 3 10 15 17 29 17 12 0 28 7 35 14
15 19 9 58 -10 64 -13 4 -13 3 -2 -11z"/>
<path d="M1763 288 c-11 -13 -16 -33 -14 -55 1 -16 30 -17 51 -3 11 8 8 9 -13
4 -27 -6 -28 -5 -25 22 3 33 33 45 42 17 4 -15 5 -15 3 2 -3 23 -29 31 -44 13z"/>
<path d="M1879 292 c10 -7 12 -20 7 -43 -5 -24 -3 -30 5 -22 15 15 7 66 -11
70 -12 4 -13 3 -1 -5z"/>
<path d="M1936 281 c-22 -24 -17 -55 9 -59 18 -2 19 -2 3 8 -23 14 -23 25 2
50 11 11 16 20 12 20 -5 0 -17 -9 -26 -19z"/>
<path d="M2024 273 c-3 -16 -8 -35 -10 -43 -3 -10 -2 -11 4 -5 10 11 24 75 17
75 -3 0 -7 -12 -11 -27z"/>
<path d="M2073 293 c22 -6 22 -16 -3 -38 -27 -25 -25 -35 8 -34 26 1 26 1 4 8
l-24 6 26 24 c33 31 33 41 -1 40 -17 -1 -21 -3 -10 -6z"/>
<path d="M2140 289 c-12 -8 -11 -9 7 -4 12 3 24 1 28 -5 3 -5 -2 -10 -12 -10
-13 0 -15 -3 -5 -8 7 -5 10 -16 6 -25 -3 -10 -1 -17 5 -17 6 0 12 11 13 25 0
14 1 31 2 37 1 17 -25 21 -44 7z"/>
<path d="M2223 288 c-19 -25 -22 -47 -7 -59 8 -6 17 -9 21 -5 3 3 1 6 -5 6
-19 0 -14 48 6 59 9 6 12 11 6 11 -6 0 -16 -6 -21 -12z"/>
<path d="M2343 289 c9 -6 15 -14 12 -20 -4 -5 -1 -9 5 -9 7 0 9 7 6 16 -3 9
-6 18 -6 20 0 2 -8 4 -17 4 -17 -1 -17 -1 0 -11z"/>
<path d="M2429 292 c10 -7 12 -20 7 -43 -4 -21 -3 -30 3 -24 5 6 11 23 13 40
2 23 -1 30 -17 33 -15 2 -17 1 -6 -6z"/>
<path d="M2478 293 c6 -2 12 -21 13 -41 l1 -37 8 35 c10 40 6 50 -18 49 -11 0
-12 -3 -4 -6z"/>
<path d="M2638 288 c-16 -13 -32 -72 -17 -62 5 3 9 13 9 23 0 21 25 45 38 37
5 -3 7 -20 5 -38 l-3 -33 10 30 c11 34 7 55 -13 55 -7 0 -20 -6 -29 -12z"/>
<path d="M2805 270 c-7 -32 -1 -50 18 -50 8 0 8 3 -2 9 -9 6 -11 18 -6 40 4
17 4 31 2 31 -3 0 -8 -13 -12 -30z"/>
<path d="M2920 296 c0 -2 7 -7 16 -10 8 -3 12 -2 9 4 -6 10 -25 14 -25 6z"/>
<path d="M3024 265 c-9 -47 -1 -53 12 -9 6 19 8 37 3 40 -4 2 -11 -12 -15 -31z"/>
<path d="M3136 291 c-4 -5 3 -7 14 -4 32 8 23 -11 -11 -24 -31 -12 -36 -37 -8
-39 9 -1 10 1 2 3 -18 6 -16 20 3 27 23 9 24 8 25 -16 1 -21 2 -20 11 5 5 15
7 34 4 42 -6 17 -32 20 -40 6z"/>
<path d="M345 260 c-4 -17 -5 -34 -2 -36 2 -3 7 10 11 27 8 42 0 50 -9 9z"/>
<path d="M800 271 c-5 -11 -7 -27 -4 -35 7 -17 39 -22 48 -7 4 5 -4 7 -15 4
-19 -5 -21 -3 -17 25 5 37 3 40 -12 13z"/>
<path d="M880 271 c0 -11 -3 -28 -7 -38 -3 -10 -3 -15 1 -12 12 11 25 69 15
69 -5 0 -9 -9 -9 -19z"/>
<path d="M1020 287 c0 -1 -4 -17 -9 -35 -6 -20 -6 -30 0 -27 5 4 9 14 9 24 0
9 5 22 12 29 9 9 9 12 0 12 -7 0 -12 -1 -12 -3z"/>
<path d="M1694 265 c-10 -40 1 -50 13 -11 6 20 7 36 2 36 -5 0 -11 -11 -15
-25z"/>
<path d="M1835 259 c-10 -43 -1 -46 12 -4 6 19 7 35 3 35 -5 0 -11 -14 -15
-31z"/>
<path d="M2263 273 c-7 -66 -8 -68 -35 -68 -15 1 -24 -3 -22 -7 8 -12 40 -9
51 5 14 16 26 87 16 87 -5 0 -9 -8 -10 -17z"/>
<path d="M2307 283 c-4 -3 -7 -19 -7 -35 0 -23 4 -28 24 -28 14 0 28 5 31 10
4 7 -3 8 -20 4 -25 -6 -26 -5 -22 25 5 32 5 35 -6 24z"/>
<path d="M2390 278 c0 -7 -3 -24 -7 -38 -9 -36 6 -19 17 19 5 19 5 31 -1 31
-5 0 -9 -6 -9 -12z"/>
<path d="M2856 259 c-8 -42 0 -50 9 -9 4 17 5 34 2 36 -2 3 -7 -10 -11 -27z"/>
<path d="M2900 274 c0 -8 7 -17 15 -20 22 -9 18 -27 -5 -21 -11 3 -20 1 -20
-4 0 -14 36 -11 48 4 8 9 4 18 -14 34 -18 16 -24 18 -24 7z"/>
<path d="M3087 283 c-10 -19 -17 -64 -9 -59 6 3 12 19 14 36 5 30 3 37 -5 23z"/>
<path d="M2127 253 c-13 -13 -7 -33 11 -33 13 0 14 2 3 9 -7 5 -10 14 -7 20 8
12 3 15 -7 4z"/>
<path d="M560 56 c0 -25 5 -46 10 -46 6 0 10 7 10 15 0 8 11 18 26 21 39 10
29 48 -13 52 -33 3 -33 3 -33 -42z m50 19 c0 -8 -7 -15 -15 -15 -8 0 -15 7
-15 15 0 8 7 15 15 15 8 0 15 -7 15 -15z"/>
<path d="M650 55 c0 -45 0 -45 35 -45 19 0 35 5 35 10 0 6 -11 10 -25 10 -34
0 -32 20 3 21 27 1 27 1 3 8 -35 9 -37 29 -4 34 23 3 22 4 -9 6 l-38 1 0 -45z"/>
<path d="M740 55 c0 -45 0 -45 36 -45 21 0 33 4 29 10 -4 6 -14 9 -23 8 -13
-2 -18 6 -20 35 -4 52 -22 46 -22 -8z"/>
<path d="M819 79 c-8 -16 -8 -28 0 -45 15 -34 67 -34 82 0 16 35 -3 66 -41 66
-20 0 -33 -7 -41 -21z m64 -9 c6 -23 -16 -56 -31 -46 -13 8 -16 48 -5 59 13
13 31 7 36 -13z"/>
<path d="M990 55 c0 -46 17 -62 27 -26 3 11 12 22 22 24 14 4 14 5 -1 6 -26 2
-22 29 5 34 13 3 8 5 -15 6 l-38 1 0 -45z"/>
<path d="M1076 64 c3 -46 14 -56 50 -52 26 3 29 7 32 46 2 23 -1 42 -7 42 -5
0 -11 -17 -13 -37 -2 -26 -8 -38 -18 -38 -10 0 -16 12 -18 38 -2 22 -8 37 -16
37 -9 0 -12 -12 -10 -36z"/>
<path d="M1193 89 c11 -6 17 -22 17 -44 0 -19 5 -35 10 -35 6 0 10 18 10 39 0
29 5 41 18 44 9 3 -3 5 -28 6 -35 0 -41 -2 -27 -10z"/>
<path d="M1270 66 c0 -40 19 -59 57 -54 25 3 28 7 31 46 2 23 -1 42 -7 42 -5
0 -11 -17 -13 -37 -2 -26 -8 -38 -18 -38 -10 0 -16 12 -18 38 -4 49 -32 52
-32 3z"/>
<path d="M1380 55 c0 -33 4 -45 13 -43 6 3 12 11 12 18 0 22 23 23 30 1 11
-36 23 -23 21 22 -2 41 -3 42 -39 45 l-37 3 0 -46z m52 20 c0 -5 -5 -11 -11
-13 -6 -2 -11 4 -11 13 0 9 5 15 11 13 6 -2 11 -8 11 -13z"/>
<path d="M1487 93 c-4 -3 -7 -21 -7 -39 0 -28 4 -35 27 -40 14 -4 33 -2 42 3
20 13 26 50 11 69 -13 14 -61 19 -73 7z m58 -24 c8 -24 -16 -55 -34 -45 -12 8
-15 49 -4 59 13 14 32 7 38 -14z"/>
<path d="M1655 73 c1 -15 3 -36 3 -45 2 -13 11 -18 31 -18 36 0 53 20 49 57
-3 25 -7 28 -44 31 -39 3 -41 2 -39 -25z m63 -16 c3 -22 -1 -27 -17 -27 -17 0
-21 6 -21 31 0 24 4 30 18 27 10 -2 18 -14 20 -31z"/>
<path d="M1772 88 c-7 -7 -12 -21 -12 -33 0 -28 19 -45 50 -45 34 0 53 31 40
65 -7 19 -17 25 -38 25 -15 0 -33 -5 -40 -12z m56 -27 c2 -13 -1 -28 -7 -34
-17 -17 -45 15 -36 42 9 29 39 23 43 -8z"/>
<path d="M1923 89 c11 -6 17 -22 17 -44 0 -19 5 -35 10 -35 6 0 10 18 10 39 0
29 5 41 18 44 9 3 -3 5 -28 6 -35 0 -41 -2 -27 -10z"/>
<path d="M2000 55 c0 -46 14 -61 23 -25 7 26 23 26 30 0 3 -11 10 -20 16 -20
14 0 14 27 1 35 -8 5 -7 11 0 20 17 21 3 35 -36 35 -34 0 -34 0 -34 -45z m52
20 c0 -5 -5 -11 -11 -13 -6 -2 -11 4 -11 13 0 9 5 15 11 13 6 -2 11 -8 11 -13z"/>
<path d="M2108 55 c-18 -49 -18 -51 12 -33 16 10 24 10 41 0 29 -19 32 -11 13
37 -22 55 -45 54 -66 -4z m42 5 c0 -11 -4 -20 -10 -20 -5 0 -10 9 -10 20 0 11
5 20 10 20 6 0 10 -9 10 -20z"/>
<path d="M2210 55 c0 -46 0 -46 33 -43 30 3 32 5 32 43 0 38 -2 40 -32 43 -33
3 -33 3 -33 -43z m48 23 c-6 -18 -28 -21 -28 -4 0 9 7 16 16 16 9 0 14 -5 12
-12z m0 -39 c-5 -14 -21 -14 -26 0 -2 6 4 11 13 11 9 0 15 -5 13 -11z"/>
<path d="M2315 66 c-18 -41 -19 -56 -5 -56 6 0 10 5 10 10 0 15 48 12 53 -2 2
-7 8 -10 12 -6 12 11 -21 83 -39 86 -11 2 -21 -9 -31 -32z m45 -18 c0 -5 -7
-8 -15 -8 -15 0 -20 21 -8 33 7 7 23 -11 23 -25z"/>
<path d="M2410 55 c0 -45 0 -45 36 -45 21 0 33 4 29 10 -3 6 -15 10 -26 10
-15 0 -19 7 -19 35 0 19 -4 35 -10 35 -5 0 -10 -20 -10 -45z"/>
<path d="M2490 55 c0 -46 14 -61 23 -25 7 26 37 26 37 0 0 -11 5 -20 10 -20 6
0 10 20 10 45 0 25 -4 45 -10 45 -5 0 -10 -9 -10 -20 0 -26 -30 -26 -37 0 -9
36 -23 21 -23 -25z"/>
<path d="M2600 84 c-23 -27 -1 -68 38 -72 27 -3 34 1 42 23 14 37 -3 65 -39
65 -16 0 -34 -7 -41 -16z m58 -24 c5 -30 -19 -45 -35 -23 -9 11 -9 21 -2 35
13 24 33 18 37 -12z"/>
</g>
</svg>
